<?xml version="1.0" encoding="UTF-8"?>
<svg version="1.1" xmlns="http://www.w3.org/2000/svg" width="980" height="980">
<path d="M0 0 C0.81984375 0.639375 1.6396875 1.27875 2.484375 1.9375 C21.59803604 17.03363993 40.19372369 33.41956091 56 52 C56.85851562 52.969375 57.71703125 53.93875 58.6015625 54.9375 C112.82162305 116.46186478 144.41448941 195.7712333 152 277 C152.10803955 278.12365967 152.10803955 278.12365967 152.21826172 279.27001953 C159.74067967 361.61754974 138.01118887 447.29826853 94 517 C93.51354004 517.77311523 93.02708008 518.54623047 92.52587891 519.34277344 C80.88687269 537.67706189 67.55637237 554.89576759 53 571 C52.4951709 571.56122559 51.9903418 572.12245117 51.47021484 572.70068359 C41.86183543 583.35164157 31.95303881 593.71874079 21 603 C19.98590881 603.8881022 18.9729921 604.7775464 17.9609375 605.66796875 C-54.15308046 668.81330703 -148.2157487 701.07050155 -264.2097168 699.48461914 C-339.88827124 693.87512506 -414.10669469 667.03277963 -474 620 C-475.22976563 619.0409375 -475.22976563 619.0409375 -476.484375 618.0625 C-495.59803604 602.96636007 -514.19372369 586.58043909 -530 568 C-530.85851562 567.030625 -531.71703125 566.06125 -532.6015625 565.0625 C-586.82162305 503.53813522 -618.41448941 424.2287667 -626 343 C-626.07202637 342.25089355 -626.14405273 341.50178711 -626.21826172 340.72998047 C-633.74067967 258.38245026 -612.01118887 172.70173147 -568 103 C-567.51354004 102.22688477 -567.02708008 101.45376953 -566.52587891 100.65722656 C-547.05777292 69.99018643 -522.74742626 40.57812387 -495 17 C-493.98471636 16.11047035 -492.97048392 15.21974014 -491.95703125 14.328125 C-419.83845245 -48.81212871 -325.7859922 -81.07051718 0 0 Z M-441 54 C-441.52561523 54.43086914 -442.05123047 54.86173828 -442.59277344 55.30566406 C-458.01038619 68.00305858 -473.24946446 81.58014502 -486 97 C-486.45310547 97.53931152 -486.90621094 98.07862305 -487.37304688 98.63427734 C-536.89319687 157.66192146 -564.19625599 231.920156 -564.25 309 C-564.25067474 309.87650208 -564.25134949 310.75300415 -564.25204468 311.65606689 C-564.21114346 345.35179029 -558.93485668 377.80533695 -549 410 C-548.74025391 410.8465918 -548.48050781 411.69318359 -548.21289062 412.56542969 C-541.22054138 434.89960434 -531.13669772 456.99979821 -519 477 C-518.63487305 477.60231445 -518.26974609 478.20462891 -517.89355469 478.82519531 C-507.44131265 495.87687986 -495.59525625 511.87638551 -482.125 526.65625 C-480.17505276 528.80692711 -478.26973871 530.98824971 -476.375 533.1875 C-473.08684837 536.96848935 -469.59080872 540.50742009 -466 544 C-465.34 543.67 -464.68 543.34 -464 543 C-463.46304724 540.6705161 -463.05271105 538.41415137 -462.703125 536.0546875 C-462.46778206 534.58075716 -462.23209063 533.10688242 -461.99609375 531.63305664 C-461.87476074 530.85608429 -461.75342773 530.07911194 -461.62841797 529.27859497 C-453.56533549 478.06436603 -453.56533549 478.06436603 -439.70703125 466.91796875 C-406.60978775 443.46811801 -362.55736848 429.01047962 -323 421 C-313.85031127 442.22178609 -304.83973836 463.49608203 -295.97747803 484.83940125 C-292.06626877 494.25495526 -288.12645484 503.65852813 -284.1875 513.0625 C-283.43919805 514.84936065 -282.69090704 516.63622589 -281.94262695 518.4230957 C-280.42101509 522.05652673 -278.89926046 525.68989793 -277.37744141 529.32324219 C-273.61481041 538.30695205 -269.85436563 547.29157721 -266.09365845 556.27609253 C-264.1640762 560.88591589 -262.23437923 565.49569122 -260.3046875 570.10546875 C-259.65869083 571.6486814 -259.01269468 573.19189426 -258.36669922 574.73510742 C-257.91568848 575.81252197 -257.46467773 576.88993652 -257 578 C-255.01690561 574.64167648 -254.61675562 571.80006669 -254.31396484 567.93383789 C-254.21401215 566.70899185 -254.11405945 565.48414581 -254.01107788 564.22218323 C-253.91079678 562.88902517 -253.81075584 561.55584903 -253.7109375 560.22265625 C-253.6023662 558.85024274 -253.49311314 557.477883 -253.38320923 556.10557556 C-253.15473979 553.23196519 -252.93164506 550.35800863 -252.71289062 547.48364258 C-252.43304228 543.80678299 -252.14432607 540.13069399 -251.8521328 536.45479679 C-251.57303547 532.94014023 -251.29792235 529.42517562 -251.0234375 525.91015625 C-250.94493624 524.90945445 -250.94493624 524.90945445 -250.86484909 523.88853645 C-250.71682373 521.99104361 -250.57197022 520.09330413 -250.42724609 518.19555664 C-250.30305801 516.57817345 -250.30305801 516.57817345 -250.17636108 514.92811584 C-249.83841964 509.31728795 -249.84547258 506.64383481 -253.125 501.9375 C-265.38391006 483.42455249 -265.38391006 483.42455249 -264 475 C-261.6875 472.125 -261.6875 472.125 -259 470 C-258.34 469.01 -257.68 468.02 -257 467 C-257.9053524 466.12462585 -257.9053524 466.12462585 -258.82899475 465.23156738 C-264.51752046 459.72349537 -270.18405678 454.19392334 -275.82708073 448.63922882 C-278.72894063 445.78430794 -281.63855307 442.93834261 -284.56762695 440.11132812 C-287.39498873 437.38187408 -290.19967856 434.6309038 -292.99014091 431.86375427 C-294.05765382 430.81285062 -295.13304916 429.7698916 -296.21632576 428.73524475 C-304.63561633 420.67914517 -304.63561633 420.67914517 -305.48020935 416.78710938 C-305.265625 414.76757813 -305.265625 414.76757813 -304 411 C-303.72019287 409.76121094 -303.44038574 408.52242187 -303.15209961 407.24609375 C-302.82218018 405.98925781 -302.49226074 404.73242188 -302.15234375 403.4375 C-301.88811363 402.42236328 -301.88811363 402.42236328 -301.61854553 401.38671875 C-301.06293303 399.25653953 -300.50035569 397.12827543 -299.9375 395 C-299.55617539 393.54309044 -299.17531194 392.0860601 -298.79492188 390.62890625 C-297.86859937 387.08452778 -296.93602767 383.54182948 -296 380 C-296.67691895 379.47833252 -297.35383789 378.95666504 -298.05126953 378.41918945 C-299.3910083 377.37057739 -299.3910083 377.37057739 -300.7578125 376.30078125 C-301.64098145 375.61411377 -302.52415039 374.92744629 -303.43408203 374.2199707 C-310.76773987 367.87506578 -316.40199999 358.37633008 -317.1953125 348.59082031 C-317.26878906 347.2658252 -317.26878906 347.2658252 -317.34375 345.9140625 C-317.50569866 336.46025725 -317.50569866 336.46025725 -321.56591797 328.38134766 C-325.44660847 325.78989658 -329.74044651 324.27711364 -334.12109375 322.73876953 C-340.89402762 320.07571107 -344.83634221 314.32250622 -348.08984375 308.11328125 C-350.89466601 301.60079694 -351.0615609 294.21997196 -348.625 287.5625 C-347 284 -347 284 -345 281 C-345.109113 278.07103615 -345.109113 278.07103615 -345.71875 274.76953125 C-345.92113281 273.51350098 -346.12351562 272.2574707 -346.33203125 270.96337891 C-346.44305176 270.3080719 -346.55407227 269.65276489 -346.66845703 268.9776001 C-346.98754515 267.07429116 -347.28140417 265.166805 -347.57421875 263.25927734 C-349.98703891 247.72371131 -353.05150824 233.53450721 -359.30859375 219.02880859 C-366.96756312 201.07155177 -369.88362403 182.38259666 -371 163 C-370.37351562 163.3609375 -369.74703125 163.721875 -369.1015625 164.09375 C-368.28429687 164.5578125 -367.46703125 165.021875 -366.625 165.5 C-365.81289063 165.9640625 -365.00078125 166.428125 -364.1640625 166.90625 C-362.10663126 168.15035859 -362.10663126 168.15035859 -360 168 C-359.8956665 167.46334717 -359.79133301 166.92669434 -359.68383789 166.3737793 C-355.9448126 147.73011642 -349.55304922 129.67043102 -337 115 C-336.01 114.67 -335.02 114.34 -334 114 C-333.95875 114.825 -333.9175 115.65 -333.875 116.5 C-332.70833386 121.16666455 -330.31990277 124.53970333 -327 128 C-326.01 128.33 -325.02 128.66 -324 129 C-323.46890625 127.89140625 -322.9378125 126.7828125 -322.390625 125.640625 C-321.67751502 124.17687294 -320.96394929 122.71334286 -320.25 121.25 C-319.90195312 120.52039063 -319.55390625 119.79078125 -319.1953125 119.0390625 C-317.21474285 115.00456876 -315.33309879 112.09287546 -312 109 C-312 108.34 -312 107.68 -312 107 C-311.41089844 106.72671875 -310.82179688 106.4534375 -310.21484375 106.171875 C-308.06887252 105.03644049 -306.4264215 103.79427349 -304.5625 102.25 C-287.70482303 89.48187059 -266.66858873 87.9878405 -246.3359375 90.50390625 C-242.17241886 91.12646183 -238.08845662 92.00284005 -234 93 C-232.73285156 93.30550781 -231.46570313 93.61101562 -230.16015625 93.92578125 C-217.22865259 97.31356161 -204.91797502 102.65176414 -192.52734375 107.59667969 C-154.55688215 123.15989854 -154.55688215 123.15989854 -114.171875 123.984375 C-113.19831055 123.80100586 -112.22474609 123.61763672 -111.22167969 123.42871094 C-110.12194824 123.21649902 -110.12194824 123.21649902 -109 123 C-109.33322266 123.77190674 -109.66644531 124.54381348 -110.00976562 125.33911133 C-111.24407941 128.20543825 -112.47352427 131.07378988 -113.69970703 133.94360352 C-114.23129273 135.18499721 -114.76480845 136.4255663 -115.30029297 137.6652832 C-116.06985843 139.44784809 -116.8319069 141.23365229 -117.59375 143.01953125 C-118.05458984 144.09307861 -118.51542969 145.16662598 -118.99023438 146.27270508 C-120.17360523 148.98418969 -120.17360523 148.98418969 -120 152 C-118.865625 152.639375 -117.73125 153.27875 -116.5625 153.9375 C-115.92441406 154.29714844 -115.28632812 154.65679687 -114.62890625 155.02734375 C-112.07947996 155.9705936 -110.02446207 156.28841673 -107.33569336 156.56079102 C-106.52410263 156.64482681 -105.7125119 156.72886261 -104.87632751 156.81544495 C-104.25713943 156.87634811 -103.63795135 156.93725128 -103 157 C-106.29190003 168.97343502 -109.68365201 180.91436771 -113.17456055 192.83129883 C-113.93582057 195.43176307 -114.69358312 198.03322981 -115.45117188 200.63476562 C-115.95533584 202.35949002 -116.45989223 204.08409976 -116.96484375 205.80859375 C-117.2135321 206.66024109 -117.46222046 207.51188843 -117.71844482 208.38934326 C-118.94687662 212.5613252 -120.2186801 216.7097807 -121.59667969 220.83496094 C-125.02611083 231.13237255 -127.41620242 241.23049518 -129.01611328 251.96679688 C-129.38255737 254.42571149 -129.769666 256.88073612 -130.16015625 259.3359375 C-130.40740356 260.91909111 -130.65354162 262.50241845 -130.8984375 264.0859375 C-131.01085785 264.80985687 -131.1232782 265.53377625 -131.23910522 266.27963257 C-131.77201368 269.8711852 -132.27279876 273.3688672 -132 277 C-130.60286374 278.63597159 -130.60286374 278.63597159 -128.6875 279.875 C-123.85027283 283.77219922 -122.31130497 287.12829908 -121.65234375 293.20703125 C-121.24594552 302.82512267 -123.12030058 309.38630339 -129.3125 316.75 C-130.199375 317.4925 -131.08625 318.235 -132 319 C-132.55171875 319.47953125 -133.1034375 319.9590625 -133.671875 320.453125 C-139.21384103 324.98746084 -145.33896949 327.49101184 -152 330 C-152.09796875 331.23234375 -152.1959375 332.4646875 -152.296875 333.734375 C-153.87570483 351.89551304 -158.03133689 365.49124467 -172 378 C-173.64253305 379.36295295 -175.29870665 380.7111414 -177 382 C-175.67926232 387.96218724 -174.10770663 393.76479107 -172.171875 399.5546875 C-171.68473022 401.02107666 -171.68473022 401.02107666 -171.18774414 402.51708984 C-170.52514788 404.49307253 -169.84998917 406.46489053 -169.16186523 408.43212891 C-168.85450439 409.35171387 -168.54714355 410.27129883 -168.23046875 411.21875 C-167.94582764 412.04310547 -167.66118652 412.86746094 -167.36791992 413.71679688 C-166.8980356 416.63276116 -167.48473745 417.48781825 -169 420 C-170.35540331 421.51816853 -171.76957303 422.98464116 -173.21850586 424.41381836 C-174.08958481 425.27829086 -174.96066376 426.14276337 -175.85813904 427.03343201 C-176.32352018 427.49057524 -176.78890133 427.94771847 -177.26838493 428.41871452 C-178.73176481 429.8564685 -180.18871876 431.3004645 -181.6441803 432.74623108 C-185.26032814 436.3356953 -188.88723478 439.91422554 -192.51385498 443.49310303 C-195.57956318 446.51926447 -198.64108895 449.54954265 -201.69723701 452.58535957 C-203.12837134 454.00358753 -204.5655957 455.41566152 -206.00291443 456.82762146 C-206.87714554 457.69524612 -207.75137665 458.56287079 -208.65209961 459.45678711 C-209.42106064 460.21527451 -210.19002167 460.9737619 -210.98228455 461.75523376 C-213.02997072 464.03334328 -214.51817638 466.32645846 -216 469 C-215.195625 469.61875 -214.39125 470.2375 -213.5625 470.875 C-211 473 -211 473 -210 475 C-209.0663362 485.20198494 -215.12904495 496.19242533 -220.04814148 504.84329224 C-223.14148433 511.85214533 -220.73347934 522.27583256 -220.1953125 529.71875 C-220.06925125 531.48829041 -220.06925125 531.48829041 -219.94064331 533.2935791 C-219.76270927 535.76780323 -219.58275756 538.24188302 -219.40087891 540.71582031 C-219.12385724 544.51567504 -218.86061127 548.31633666 -218.59765625 552.1171875 C-218.42271881 554.52610309 -218.24696678 556.9349597 -218.0703125 559.34375 C-217.99313995 560.48324097 -217.91596741 561.62273193 -217.8364563 562.79675293 C-217.75652435 563.84544556 -217.67659241 564.89413818 -217.59423828 565.97460938 C-217.52761993 566.8993103 -217.46100159 567.82401123 -217.3923645 568.7767334 C-217.18413557 571.1981671 -217.18413557 571.1981671 -215 573 C-205.61306014 550.80540248 -196.23736717 528.60624872 -186.9375 506.375 C-186.57264496 505.50287872 -186.20778992 504.63075745 -185.83187866 503.73220825 C-182.42257233 495.58199223 -179.01576029 487.43073408 -175.609375 479.27929688 C-173.60434629 474.48140057 -171.59842697 469.68387729 -169.59207153 464.88653564 C-168.4856885 462.24025857 -167.38038287 459.59353347 -166.27514648 456.94677734 C-161.25403274 444.93401932 -156.14746777 432.95913481 -151 421 C-67.2510212 442.11124574 -67.2510212 442.11124574 -36 466 C-35.24847656 466.53625 -34.49695313 467.0725 -33.72265625 467.625 C-14.10014122 482.82605447 -13.64326401 520.22471881 -10 543 C-6.78351893 543.32971891 -6.78351893 543.32971891 -4.328125 540.65625 C-3.29344812 539.61265784 -2.26788592 538.55997599 -1.25 537.5 C-0.43776978 536.66807129 -0.43776978 536.66807129 0.39086914 535.81933594 C4.4163037 531.67019967 8.30847787 527.45045781 12 523 C12.45455566 522.45923828 12.90911133 521.91847656 13.37744141 521.36132812 C62.89468589 462.33414928 90.19625761 388.07752049 90.25 311 C90.25067474 310.12349792 90.25134949 309.24699585 90.25204468 308.34393311 C90.21114346 274.64820971 84.93485668 242.19466305 75 210 C74.61038086 208.7301123 74.61038086 208.7301123 74.21289062 207.43457031 C67.22054138 185.10039566 57.13669772 163.00020179 45 143 C44.63487305 142.39768555 44.26974609 141.79537109 43.89355469 141.17480469 C33.43443104 124.11189355 21.5821796 108.09434066 8.09375 93.3125 C6.31095614 91.34344409 4.58881553 89.34109798 2.875 87.3125 C-5.40404674 77.83973025 -14.46216035 68.87440463 -24.34765625 61.09375 C-27.17319481 58.86328068 -29.89246692 56.53073054 -32.625 54.1875 C-44.8921598 43.97540563 -58.22890291 35.33272726 -71.94970703 27.21679688 C-73.77593024 26.13297972 -75.59004249 25.02881446 -77.40234375 23.921875 C-104.94309963 7.49756968 -135.87918909 -2.87279406 -167 -10 C-168.3610083 -10.31275879 -168.3610083 -10.31275879 -169.74951172 -10.63183594 C-263.26222724 -31.53778893 -367.01721607 -6.6779781 -441 54 Z " fill="#292929" transform="translate(727,180)"/>
</svg>
